<svg width="46" height="47" viewBox="0 0 46 47" fill="none" xmlns="http://www.w3.org/2000/svg">
<g clip-path="url(#clip0_50_73)">
<path d="M23.2503 6.95312C32.1517 6.96164 39.3603 14.2409 39.3519 23.212C39.3434 32.1831 32.1207 39.4482 23.2193 39.4397C14.3291 39.4312 7.12426 32.1689 7.11768 23.2082C7.10923 14.239 14.316 6.96164 23.2155 6.95312C23.2268 6.95312 23.239 6.95312 23.2503 6.95312ZM17.8321 31.5369C21.3265 30.285 25.143 30.2841 28.6384 31.535L29.1407 29.6302C29.3726 29.6302 29.5848 29.6245 29.7989 29.6321C30.0195 29.6141 30.2411 29.6264 30.458 29.6709C30.3068 30.461 30.1162 31.2435 29.8853 32.0138C30.4805 32.3449 31.072 32.6449 31.6344 32.9931C32.1968 33.3413 32.7291 33.7321 33.2727 34.1039C39.8072 28.069 39.3998 17.8044 33.2473 12.2747C32.209 13.0979 31.0776 13.7952 29.8768 14.3507C30.1049 15.1654 30.3228 15.946 30.4664 16.7512H29.1285C29.0468 16.4267 28.9727 16.1163 28.891 15.8088C28.8206 15.4871 28.7276 15.172 28.6112 14.8645C25.1242 16.1097 21.3181 16.1078 17.8321 14.8588L17.3279 16.7692C17.096 16.7692 16.8819 16.7702 16.6688 16.7692C16.451 16.7673 16.2332 16.7635 15.974 16.7597L16.5815 14.344C15.3835 13.7905 14.2559 13.095 13.2222 12.2699C6.72899 18.2377 7.0022 28.5014 13.2222 34.1172C14.2634 33.293 15.3966 32.5947 16.5984 32.0374C16.3571 31.2492 16.1571 30.4478 16.0003 29.6387H17.3345L17.8311 31.5378L17.8321 31.5369ZM28.1765 13.5965C28.169 13.5435 28.1577 13.4915 28.1437 13.4395C27.7343 12.3277 27.1729 11.2792 26.4772 10.3236C26.0293 9.69622 25.4641 9.16255 24.8135 8.75284C23.9056 8.15956 22.7461 8.12738 21.8072 8.66957C21.2035 9.01115 20.6712 9.46723 20.2403 10.0132C19.5474 10.8762 18.9831 11.8366 18.5634 12.8632C18.4649 13.0931 18.3747 13.3269 18.2696 13.5861C21.4711 14.7434 24.9722 14.7471 28.1756 13.5956L28.1765 13.5965ZM18.2855 32.7963C18.3081 32.8739 18.3174 32.9193 18.3334 32.9609C18.7155 33.9923 19.2263 34.9697 19.8534 35.8715C20.2637 36.4667 20.766 36.9928 21.3415 37.428C22.5499 38.3165 23.8605 38.3279 25.0811 37.4621C25.4989 37.1612 25.8763 36.8064 26.2039 36.408C27.0377 35.3681 27.6949 34.1957 28.1483 32.9392C28.1615 32.8909 28.1699 32.8417 28.1746 32.7925C24.9759 31.6466 21.4833 31.6485 18.2865 32.7982L18.2855 32.7963ZM27.0057 37.5747C28.8994 37.094 30.6748 36.2244 32.2183 35.0189C31.3705 34.3547 30.4505 33.7898 29.4768 33.3347C29.1069 34.0945 28.7671 34.8354 28.3896 35.5564C27.9991 36.2755 27.5353 36.9511 27.0057 37.5737V37.5747ZM19.4798 37.5804C18.9446 36.9653 18.478 36.2916 18.0893 35.5725C17.7044 34.8458 17.3654 34.0954 16.9955 33.3337C16.021 33.7898 15.0999 34.3547 14.2521 35.0189C15.8013 36.2254 17.5804 37.0978 19.4798 37.5804ZM29.428 13.0534C30.1406 12.8112 31.9282 11.6946 32.177 11.3389C30.6401 10.1466 28.876 9.2865 26.9945 8.8115C28.0807 10.0643 28.8253 11.5082 29.428 13.0534ZM19.4535 8.82191C17.5701 9.2988 15.8041 10.1636 14.2672 11.3606C14.8192 11.8782 16.528 12.9115 17.05 13.042C17.6095 11.5092 18.4217 10.0823 19.4535 8.82191Z" fill="white"/>
<path d="M31.8231 43.9517C31.8259 44.4437 31.7217 44.9301 31.5179 45.3776C31.1339 46.2415 30.2984 46.8112 29.3604 46.849C29.0252 46.8802 28.6873 46.8528 28.3624 46.7667C27.5287 46.5576 26.8649 45.9227 26.6124 45.0947C26.3589 44.35 26.3551 43.542 26.6011 42.7954C26.9062 41.7829 27.8047 41.0695 28.8525 41.008C29.413 40.9465 29.9791 41.06 30.4739 41.3325C31.1349 41.7082 31.594 42.362 31.7254 43.1152C31.7799 43.3896 31.7921 43.6725 31.8231 43.9517ZM28.3286 43.9205L28.3755 43.9242C28.3755 44.14 28.3615 44.3567 28.3784 44.5715C28.3812 44.9481 28.461 45.319 28.6121 45.6634C28.6985 45.8574 28.8882 45.9842 29.0985 45.9898C29.3201 46.005 29.5275 45.8772 29.6158 45.6719C29.6909 45.5215 29.7454 45.3615 29.7773 45.196C29.904 44.4456 29.9181 43.6801 29.8186 42.926C29.7857 42.6856 29.7228 42.4491 29.6327 42.2239C29.5632 42.011 29.3642 41.8681 29.1417 41.8719C28.9107 41.8634 28.6995 41.9987 28.6084 42.2116C28.5455 42.327 28.5023 42.4519 28.4807 42.5816C28.4206 43.0263 28.3774 43.4738 28.3277 43.9195L28.3286 43.9205Z" fill="white"/>
<path d="M25.9082 43.9495C25.9392 44.4491 25.8415 44.9477 25.6256 45.3981C25.2256 46.2772 24.3572 46.843 23.3986 46.8525C22.9695 46.8846 22.5386 46.8156 22.1396 46.6519C21.4636 46.3718 20.9472 45.8031 20.7303 45.1001C20.4806 44.3648 20.4731 43.5681 20.7078 42.8272C21.0101 41.7703 21.9574 41.0332 23.0484 41.0048C23.9018 40.9622 24.6511 41.1979 25.2332 41.8621C25.6322 42.3286 25.8678 42.9133 25.9045 43.5284C25.9185 43.6684 25.9091 43.8104 25.9091 43.9513L25.9082 43.9495ZM24.0154 44.0006C23.9901 43.6031 23.9892 43.3003 23.9469 43.0051C23.9112 42.7459 23.8493 42.4904 23.762 42.2444C23.6953 42.0192 23.4878 41.8659 23.255 41.8678C23.0127 41.8574 22.7921 42.0097 22.7142 42.2415C22.6287 42.4289 22.5733 42.6295 22.5508 42.8339C22.5161 43.4413 22.4954 44.0516 22.5039 44.6601C22.4973 45.0092 22.5762 45.3555 22.732 45.6678C22.8541 45.946 23.177 46.0718 23.454 45.9488C23.5695 45.8968 23.6643 45.8069 23.7216 45.6924C23.8108 45.5382 23.8699 45.3688 23.8953 45.1918C23.9525 44.7642 23.9826 44.3346 24.0136 44.0006H24.0145H24.0154Z" fill="white"/>
<path d="M10.0338 42.3231C10.0648 42.3364 10.0977 42.3458 10.1305 42.3534C10.4554 42.3487 10.7229 42.6108 10.7276 42.9382C10.7276 42.958 10.7276 42.9779 10.7258 42.9968C10.753 43.38 10.4939 43.7235 10.1211 43.8002C9.9925 43.8219 9.86106 43.8285 9.73056 43.82C9.31933 43.8106 8.98228 43.4888 8.94942 43.0754C8.87337 42.5426 9.06865 42.008 9.46861 41.6513C9.8911 41.2728 10.4281 41.0495 10.9924 41.0173C11.6731 40.9227 12.366 41.0609 12.9603 41.4091C13.6165 41.7875 13.9376 42.5644 13.7414 43.3006C13.6456 43.68 13.3987 44.0026 13.0588 44.1919C12.6711 44.419 12.2561 44.594 11.8242 44.7152C11.5125 44.8117 11.1961 44.8968 10.891 45.0123C10.6046 45.0936 10.3587 45.281 10.2019 45.5365C10.2629 45.5213 10.323 45.5034 10.3821 45.4816C10.8844 45.2431 11.4543 45.1911 11.9914 45.3349C12.1622 45.3822 12.3359 45.4201 12.5105 45.4494C12.8889 45.5062 13.0401 45.3803 13.0851 44.9886C13.0917 44.9328 13.0945 44.877 13.103 44.7852C13.3931 44.7653 13.6841 44.7662 13.9742 44.789C14.008 45.3009 14.008 45.7919 13.7592 46.248C13.5273 46.6748 13.1274 46.812 12.6833 46.8508C12.2542 46.8792 11.8233 46.8271 11.413 46.6965C11.1445 46.6189 10.8769 46.5319 10.6037 46.4751C10.3342 46.4193 10.0554 46.3843 9.88735 46.6833H8.96068C8.92031 46.2575 8.99918 45.8279 9.19071 45.4456C9.43106 45.0066 9.77844 44.6366 10.2 44.3707C10.5145 44.1521 10.845 43.9563 11.1661 43.7481C11.2853 43.6743 11.4008 43.5939 11.5107 43.5068C11.751 43.3185 11.8853 43.0243 11.8712 42.7177C11.8768 42.4367 11.7116 42.1802 11.4543 42.0705C10.9755 41.8443 10.4075 41.9446 10.0338 42.3203V42.3231Z" fill="white"/>
<path d="M16.0435 41.1609C16.0548 41.3416 16.0632 41.4855 16.0736 41.6652C16.1102 41.6359 16.1459 41.6028 16.1778 41.5678C16.5233 41.0918 17.0059 40.9802 17.5448 41.0748C17.817 41.1354 18.0856 41.2139 18.3484 41.3085C18.508 41.3577 18.6667 41.4136 18.8244 41.4694C18.9549 41.5224 19.1033 41.4911 19.2028 41.3918L19.2967 41.1723H20.0027C20.0525 41.3274 20.045 41.4949 19.9811 41.6444C19.8168 42.022 19.6544 42.4014 19.4629 42.7648C19.2178 43.2284 18.9362 43.6731 18.6855 44.1339C18.3287 44.8304 18.14 45.6006 18.1325 46.384C18.1287 46.4758 18.1231 46.5676 18.1175 46.6755H16.312C16.2679 46.4645 16.2613 46.2468 16.2923 46.033C16.3458 45.2268 16.6923 44.4689 17.2669 43.9049C17.6462 43.5293 18.0405 43.1697 18.4264 42.8017C18.5127 42.7184 18.5925 42.6285 18.723 42.4922C18.6123 42.5178 18.5653 42.5235 18.5212 42.5386C18.1353 42.655 17.7269 42.672 17.3326 42.5897C17.1223 42.549 16.9101 42.5197 16.697 42.5036C16.404 42.4676 16.1383 42.6777 16.1027 42.9729C16.1027 42.9758 16.1027 42.9786 16.1027 42.9805C16.0764 43.1186 16.0595 43.2577 16.052 43.3987C16.0435 43.4896 16.0435 43.5823 16.0379 43.6883H15.0708V41.1723C15.2314 41.1685 15.3863 41.1628 15.5412 41.16C15.6961 41.1571 15.8567 41.16 16.0435 41.16V41.1609Z" fill="white"/>
<path d="M33.2736 41.8792C33.7928 41.7959 34.3092 41.7174 34.573 41.1724H35.9738C35.9785 41.2764 35.9851 41.3767 35.986 41.4761C35.986 42.7535 35.986 44.0318 35.986 45.3092C35.986 45.3755 35.9842 45.4408 35.986 45.507C35.9954 45.7946 36.0837 45.8902 36.3747 45.9082C36.5127 45.9167 36.6517 45.9101 36.8047 45.9101C36.8348 46.1552 36.8423 46.4021 36.8282 46.6481C36.6057 46.704 33.7374 46.7229 33.2783 46.6737V45.9441C33.5356 45.8609 33.8342 45.9858 34.1252 45.7937C34.1628 45.6934 34.1872 45.5893 34.1984 45.4833C34.2059 44.5911 34.2031 43.6978 34.2022 42.8055C34.1966 42.7592 34.1872 42.7138 34.1731 42.6693H33.2727V41.8792H33.2736Z" fill="white"/>
<path d="M23.0644 0.139648L23.4756 1.83054H23.5357L23.9901 0.166143H25.1149V3.04076H24.4173V1.00544C24.1638 1.66306 24.0108 2.34812 23.8033 3.0313H23.1611L22.6644 0.962859L22.6053 0.964752C22.6025 1.13223 22.5987 1.29971 22.5968 1.46719C22.5949 1.63468 22.594 1.80594 22.5921 1.97531C22.5903 2.15415 22.5931 2.33299 22.5856 2.51182C22.578 2.67836 22.5593 2.84489 22.5433 3.03697L21.9227 3.00291C21.8617 2.79758 21.8636 0.573017 21.9237 0.139648H23.0644Z" fill="white"/>
<path d="M37.6178 9.18052L37.0075 8.62982L37.2563 6.75915L37.2075 6.73833L36.1804 7.8719L35.5776 7.31174L37.5173 5.15625L38.1191 5.72209L37.8609 7.5956L37.907 7.62115L38.9463 6.47812L39.5584 7.03071L37.6197 9.18147L37.6178 9.18052Z" fill="white"/>
<path d="M11.0713 5.49821L10.1831 4.27948L10.8403 3.78271L12.5537 6.11799L11.8946 6.61759L10.0582 5.97511C10.3718 6.45295 10.692 6.84657 10.9943 7.28089L10.338 7.77482L8.62175 5.43955L9.28084 4.94751L11.0234 5.55593L11.0703 5.49727L11.0713 5.49821Z" fill="white"/>
<path d="M44.3664 24.3116C44.0378 24.6854 43.7439 24.869 43.0642 25.1188V24.164L43.9777 23.6928C44.1204 23.6417 44.2302 23.5234 44.2725 23.3758C44.2772 23.3191 44.2781 23.2623 44.2734 23.2046H43.1355C43.1055 22.9093 43.1045 22.6122 43.1318 22.317C44.0922 22.2829 45.0348 22.3776 45.9972 22.3653C45.9972 22.6491 46.0019 22.9008 45.9963 23.1525C45.9887 23.4629 45.9718 23.7723 45.9578 24.0817C45.9549 24.1375 45.954 24.1943 45.9456 24.2501C45.8845 24.6722 45.6611 24.9172 45.3034 24.9551C44.909 25.0393 44.5175 24.8037 44.403 24.4148C44.3917 24.3826 44.3805 24.3495 44.3654 24.3107L44.3664 24.3116ZM45.2752 24.0391C45.4301 23.813 45.4517 23.6483 45.3794 23.2547L44.8536 23.2197C44.7907 23.3881 44.7776 23.5708 44.817 23.7468C44.8762 24.0486 44.9475 24.0959 45.2761 24.0391H45.2752Z" fill="white"/>
<path d="M18.2865 0.650537C18.7944 0.565377 19.2695 0.484002 19.7464 0.408304C19.9023 0.379918 20.06 0.363832 20.2177 0.360047C20.5576 0.333553 20.8674 0.555915 20.9547 0.887092C21.0693 1.22868 20.9453 1.60527 20.6515 1.8106C20.6008 1.84656 20.5482 1.87873 20.4881 1.91752C20.9125 2.16165 21.1003 2.36793 21.519 3.04636C21.3584 3.07664 21.2073 3.10692 21.0552 3.13342C20.8993 3.16086 20.7435 3.18451 20.5698 3.2129C20.3548 2.93471 20.137 2.65463 19.921 2.3736C19.8243 2.20423 19.615 2.13705 19.4385 2.21937L19.6131 3.36903L18.755 3.5138L18.2865 0.651483V0.650537ZM20.136 1.32235C20.1098 1.09147 20.0074 0.968466 19.8243 0.980767C19.6253 0.974144 19.4272 1.01578 19.2469 1.10188L19.3511 1.66299C19.6685 1.61284 19.9793 1.64217 20.136 1.32235Z" fill="white"/>
<path d="M14.8296 2.62059C14.8343 1.63653 15.7271 1.22303 16.4726 1.2041C17.4011 1.18045 17.8518 2.01691 17.8781 2.85242C17.9062 3.77971 17.1091 4.23674 16.2125 4.26702C15.3544 4.29635 14.8727 3.47976 14.8296 2.61965V2.62059ZM17.0218 2.97448C17.0096 2.67358 16.912 2.38215 16.7411 2.13518C16.5852 1.92418 16.3083 1.84659 16.067 1.94689C15.8266 2.02353 15.668 2.25346 15.6792 2.50705C15.6914 2.81835 15.7994 3.11831 15.9881 3.36432C16.1402 3.56776 16.4116 3.63589 16.6406 3.52991C16.8838 3.46178 17.0444 3.22807 17.0218 2.97448Z" fill="white"/>
<path d="M36.232 4.882C36.1992 5.51313 35.8443 6.08181 35.2941 6.3846C35.0087 6.536 34.6735 6.55965 34.3702 6.45083C34.02 6.34297 33.7055 6.14142 33.4595 5.86891C33.1694 5.56234 33.0596 5.12518 33.1704 4.71547C33.2605 4.32752 33.4699 3.97931 33.7684 3.71815C34.112 3.39455 34.6087 3.29709 35.0472 3.4674C35.4039 3.58568 35.7194 3.80426 35.9569 4.09759C36.1409 4.31616 36.2386 4.5953 36.2311 4.882H36.232ZM35.4171 4.77035C35.4171 4.36158 34.9458 3.96133 34.5514 4.20829C34.2163 4.40889 33.9956 4.75805 33.9581 5.14884C33.9168 5.56139 34.4059 5.91244 34.7608 5.72319C35.111 5.5207 35.3514 5.1706 35.4171 4.7694V4.77035Z" fill="white"/>
<path d="M2.06375 27.4427C1.32674 27.4427 0.855424 27.0878 0.693938 26.3999C0.631973 26.1549 0.611318 25.9013 0.632912 25.6486C0.703327 25.0081 1.02911 24.6561 1.65065 24.498C1.91165 24.4261 2.18392 24.4063 2.45244 24.4394C2.94065 24.4876 3.35188 24.8264 3.49458 25.2995C3.60162 25.6023 3.63917 25.9249 3.60349 26.2448C3.56594 26.6971 3.28334 27.0907 2.87024 27.2695C2.61862 27.3906 2.34259 27.4493 2.06375 27.4417V27.4427ZM2.27875 25.2948C2.02619 25.2881 1.77552 25.3459 1.55113 25.4632C1.34739 25.5909 1.24318 25.8332 1.28918 26.0707C1.31453 26.3138 1.49949 26.5097 1.7389 26.5466C2.03464 26.6034 2.33978 26.5665 2.61393 26.4425C2.83925 26.3536 2.97821 26.1237 2.9538 25.8805C2.9369 25.4982 2.705 25.2957 2.27875 25.2938V25.2948Z" fill="white"/>
<path d="M45.9587 21.2316C45.7531 21.2666 45.5728 21.2997 45.3916 21.3262C45.0048 21.383 44.617 21.4426 44.2293 21.4909C43.6697 21.5618 43.0698 21.3073 42.9318 20.6118C42.8736 20.3365 42.8445 20.0564 42.8445 19.7754C42.8285 19.3543 43.0933 18.9739 43.4923 18.8471C43.7852 18.7563 44.0856 18.691 44.3898 18.6522C44.7663 18.5898 45.1456 18.5472 45.524 18.4961C45.6329 18.7686 45.678 19.0629 45.6545 19.3553C45.2564 19.4139 44.8527 19.4716 44.4481 19.5313C44.2725 19.5568 44.095 19.5701 43.9232 19.6088C43.6528 19.6448 43.4622 19.8946 43.4979 20.1671C43.5054 20.2277 43.5242 20.2854 43.5533 20.3393C43.6162 20.5248 43.7993 20.6421 43.9927 20.6194C44.234 20.5995 44.4734 20.5664 44.7138 20.5333C45.0179 20.4917 45.3221 20.4425 45.6263 20.4008C45.6949 20.3961 45.7634 20.3961 45.8329 20.3999L45.9606 21.2316H45.9587Z" fill="white"/>
<path d="M42.6604 14.6715L42.037 13.4121L41.5085 13.6752L42.1873 15.0623L41.6371 15.3452C41.6108 15.3131 41.5873 15.2781 41.5657 15.2431C41.2296 14.5608 40.8954 13.8786 40.5424 13.1614L43.1336 11.8745L44.1842 14.0243L43.6556 14.294L42.9797 12.9428L42.5515 13.1519L43.1627 14.4123L42.6604 14.6715Z" fill="white"/>
<path d="M41.9601 11.4421L41.4887 10.8393C41.6437 10.4665 41.6042 10.2195 41.377 10.0861C41.2512 10.0123 41.1949 10.0331 41.0456 10.2224L41.1705 10.6037C41.2465 10.8355 41.3366 11.0636 41.3949 11.2992C41.4887 11.5954 41.3995 11.919 41.1686 12.1252C40.9254 12.359 40.5715 12.4328 40.256 12.3164C40.133 12.2738 40.0185 12.2094 39.9171 12.1271C39.5894 11.8575 39.3491 11.496 39.2261 11.0882C39.1096 10.6983 39.2627 10.2773 39.6016 10.054L40.0898 10.6737C39.9593 10.8639 39.8307 11.056 39.9396 11.2945C39.9997 11.4676 40.149 11.5935 40.3292 11.6209C40.5799 11.5234 40.6438 11.4212 40.5818 11.18C40.5442 11.0352 40.4701 10.8999 40.4353 10.7551C40.3715 10.5214 40.3274 10.282 40.3029 10.0407C40.2692 9.56003 40.7808 9.23548 41.208 9.35187C41.3085 9.37457 41.4033 9.41526 41.4897 9.47109C41.9094 9.76252 42.1995 10.2082 42.2971 10.7125C42.3459 10.9661 42.2342 11.1932 41.961 11.443L41.9601 11.4421Z" fill="white"/>
<path d="M1.86378 28.3161L2.13981 29.0712C1.93044 29.2292 1.81684 29.4175 1.93607 29.6796C2.00555 29.8329 2.05719 29.8632 2.26562 29.8566C2.41584 29.7402 2.37453 29.5755 2.37265 29.4175C2.3595 29.128 2.36326 28.8375 2.3811 28.5489C2.44682 27.8572 3.26927 27.6462 3.75936 28.0237C3.86451 28.1023 3.9537 28.1997 4.02412 28.3104C4.27761 28.7098 4.38934 29.1848 4.34052 29.6569C4.29545 30.0316 4.03726 30.2351 3.69551 30.3959L3.41198 29.6418C3.86545 29.2472 3.85982 28.8517 3.40728 28.6492C3.15848 28.723 3.1106 28.7722 3.10215 29.0107C3.09558 29.198 3.11529 29.3872 3.10684 29.5746C3.10497 29.7525 3.08525 29.9304 3.04676 30.1045C2.95099 30.4991 2.55667 30.7413 2.16422 30.6457C2.07315 30.623 1.98771 30.5833 1.91072 30.5284C1.80933 30.4612 1.72295 30.3742 1.65441 30.2729C1.39435 29.8887 1.27699 29.4241 1.32205 28.9605C1.35961 28.6577 1.57085 28.4051 1.86096 28.3161H1.86378Z" fill="white"/>
<path d="M28.5033 3.68874L27.6263 3.51842C27.5982 3.33296 27.5756 3.17873 27.5512 3.01692L26.557 2.82579L26.2941 3.26767L25.4388 3.09735L27.0377 0.453613L27.9756 0.633395C28.1671 1.63355 28.3343 2.6356 28.5033 3.68779V3.68874ZM27.4855 2.38579C27.4818 2.03191 27.4254 1.68086 27.3193 1.34306L26.8452 2.25143L27.4855 2.38579Z" fill="white"/>
<path d="M4.87098 14.1899C4.71794 14.154 4.56115 14.1303 4.41187 14.0802C4.04947 13.9571 3.71148 13.7688 3.41573 13.5247C3.02798 13.2598 2.8909 12.7479 3.09464 12.3221C3.15848 12.1565 3.24486 11.9994 3.35095 11.8575C3.55938 11.5547 3.93117 11.4118 4.287 11.497C4.79211 11.6011 5.25873 11.8404 5.63991 12.1906C6.00795 12.4687 6.1131 12.9788 5.88496 13.3818C5.80609 13.5512 5.70751 13.7102 5.59109 13.8559C5.41271 14.0697 5.14794 14.1918 4.87098 14.189V14.1899ZM4.97895 13.4509C5.18456 13.4585 5.29722 13.4027 5.35074 13.2721C5.41364 13.1283 5.3714 12.9598 5.24746 12.8643C4.89727 12.5539 4.48135 12.3287 4.03069 12.2047C3.88141 12.1555 3.71899 12.2208 3.64482 12.3609C3.57628 12.4782 3.58848 12.6258 3.6758 12.7289C3.70209 12.7677 3.73401 12.8018 3.77062 12.8311C4.09359 13.0847 4.45506 13.2853 4.84 13.4254C4.88506 13.4386 4.932 13.4471 4.97895 13.4509Z" fill="white"/>
<path d="M43.4885 17.3635V18.0874C43.0182 18.2094 42.529 17.9776 42.3215 17.5348C42.1844 17.267 42.1037 16.9727 42.0849 16.6718C42.0417 16.1883 42.2877 15.7266 42.7111 15.4957C43.0379 15.2903 43.4181 15.1863 43.804 15.1976C44.126 15.1976 44.433 15.3358 44.6471 15.578C44.9626 15.9328 45.1269 16.3984 45.1053 16.8743C45.0865 17.2471 44.8827 17.5849 44.5645 17.7751L44.1805 17.1061C44.2162 17.0655 44.2481 17.0323 44.2772 16.9973C44.4847 16.7674 44.4678 16.4126 44.2406 16.2034C44.1194 16.0918 43.9551 16.0398 43.7918 16.0615C43.527 16.1117 43.2707 16.1978 43.0285 16.317C42.8116 16.4126 42.7008 16.6567 42.7712 16.8847C42.8078 17.1156 42.9881 17.2954 43.2172 17.3313C43.2979 17.3465 43.3806 17.3503 43.4895 17.3626L43.4885 17.3635Z" fill="white"/>
<path d="M3.60068 16.7714C3.07585 16.7155 2.57638 16.5197 2.15107 16.2046C1.86659 16.0049 1.73233 15.6491 1.81589 15.3095C1.85626 15.1079 1.91917 14.912 2.00367 14.7256C2.16609 14.3481 2.56229 14.1305 2.96507 14.1976C3.45891 14.2431 3.93304 14.4162 4.34145 14.7001C4.73202 14.9234 4.90383 15.3993 4.74704 15.8232C4.7123 15.9491 4.6663 16.0731 4.61184 16.1913C4.42876 16.5935 4.10767 16.7742 3.60068 16.7714ZM3.79409 16.0399C4.01942 16.038 4.13865 15.9623 4.19029 15.8185C4.24193 15.6813 4.19217 15.5261 4.07106 15.4448C3.98656 15.371 3.89267 15.3095 3.79221 15.2612C3.57064 15.1656 3.34249 15.0814 3.11435 15.001C3.00826 14.965 2.89935 14.9404 2.78856 14.9253C2.61769 14.8931 2.44681 14.9849 2.37827 15.1458C2.32382 15.2849 2.36513 15.4098 2.51911 15.5365C2.58201 15.5924 2.65336 15.6378 2.73035 15.6719C3.01577 15.7845 3.30306 15.8914 3.59223 15.9945C3.65889 16.0144 3.72743 16.0286 3.79691 16.038H3.79597L3.79409 16.0399Z" fill="white"/>
<path d="M1.44785 21.5479L1.31547 22.285C0.747458 22.1668 0.493963 21.8583 0.507108 21.2887C0.512741 21.054 0.545601 20.8212 0.605689 20.5941C0.708026 20.156 1.14366 19.8835 1.57836 19.9867C1.69478 20.0141 1.80369 20.0671 1.89663 20.1418C2.10788 20.3131 2.28157 20.526 2.40738 20.7682C2.51535 20.9414 2.62332 21.1146 2.74819 21.3161C2.88338 21.1041 2.82236 20.9026 2.8524 20.7171C2.88338 20.5241 2.89559 20.3282 2.92 20.0974L3.54529 20.1314C3.47206 20.949 3.40258 21.7315 3.33123 22.5443C3.0552 22.4866 2.80264 22.3475 2.60454 22.145C2.41864 21.9359 2.25716 21.704 2.09192 21.4779C1.9924 21.3416 1.90602 21.1959 1.81214 21.0568C1.78115 21.0105 1.74548 20.966 1.70698 20.9253C1.60558 20.7966 1.43753 20.7408 1.2798 20.7824C1.14366 20.8316 1.05071 20.9584 1.04602 21.1041C1.04039 21.2697 1.14178 21.4202 1.2967 21.4751C1.33801 21.493 1.37838 21.5148 1.44692 21.5489L1.44785 21.5479Z" fill="white"/>
<path d="M14.0587 3.31432L14.3169 3.8073L13.3274 4.34665L13.8663 5.39884L13.0964 5.81329L11.7548 3.23957L13.6945 2.21387L13.9818 2.73902L12.8269 3.36163L13.0617 3.83285L14.0578 3.31337L14.0587 3.31432Z" fill="white"/>
<path d="M42.3732 31.9826L41.27 31.4962L41.6174 30.6938L42.7346 31.1717L44.7119 30.8187L44.326 31.7016L43.1872 31.8586L43.8472 32.803L43.466 33.6953L42.375 31.9817L42.3732 31.9826Z" fill="white"/>
<path d="M30.0392 4.24234L29.2177 3.96037L29.9069 1.90518C29.6496 1.73202 29.3417 1.70648 29.0581 1.55603L29.2797 0.912598L31.8381 1.78974L31.6165 2.44547L30.7481 2.16161L30.0383 4.2414L30.0392 4.24234Z" fill="white"/>
<path d="M42.5638 27.7448L44.6753 28.3012L44.9212 27.4165L45.5832 27.5916L44.9025 30.2173L44.2312 30.0527L44.4565 29.1604L42.3478 28.5936L42.5638 27.7448Z" fill="white"/>
<path d="M1.41781 19.2629L0.794403 19.1134L1.30421 16.832L1.81026 16.9437C2.27688 17.713 3.01764 18.275 3.88047 18.5144L3.71335 19.2648C2.93315 19.0197 2.25153 18.5286 1.76801 17.8634C1.60934 18.3413 1.56334 18.7973 1.41781 19.2638V19.2629Z" fill="white"/>
<path d="M5.60141 10.2122C5.54602 10.4923 5.50002 10.7308 5.45026 10.9683C5.43429 11.0165 5.4127 11.0638 5.38735 11.1083L4.88975 10.7412C5.02776 10.3144 5.08504 9.89147 4.85126 9.47608L5.23901 8.94336L7.59651 10.6948L7.13271 11.3401L5.60141 10.2122Z" fill="white"/>
<path d="M9.82914 8.23623L9.22732 8.88533L7.24443 6.78378L7.85188 6.14697L9.8282 8.23623H9.82914Z" fill="white"/>
<path d="M32.1151 5.1468L31.3264 4.76452L32.5554 2.1416L33.3516 2.51441L32.116 5.1468H32.1151Z" fill="white"/>
<path d="M4.81746 30.6011L5.16296 31.412L2.51817 32.5635L2.17172 31.7536L4.81746 30.6011Z" fill="white"/>
<path d="M42.8407 26.3667L42.9656 25.5142C43.9157 25.6296 44.8452 25.7734 45.8075 25.9191L45.6902 26.7755C44.7297 26.6562 43.7965 26.5172 42.8398 26.3667H42.8407Z" fill="white"/>
<path d="M35.7363 23.2115C35.7447 23.9675 35.5776 24.716 35.25 25.3953C34.8293 26.2252 34.1224 26.8714 33.2614 27.2121C32.6361 27.4619 31.9733 27.601 31.3011 27.6256C30.5181 27.688 29.7303 27.6019 28.9793 27.3729C27.3541 26.8478 26.3805 25.7436 26.1326 24.0233C26.0096 23.2399 26.0594 22.4394 26.2781 21.6776C26.6077 20.5157 27.4649 19.5818 28.5887 19.1588C29.552 18.7898 30.5904 18.6611 31.6137 18.7851C32.2015 18.8248 32.7779 18.9658 33.3187 19.2004C34.6003 19.7332 35.495 20.9254 35.6546 22.3135C35.6987 22.6106 35.7109 22.9125 35.7372 23.2115H35.7363ZM32.5441 23.2115C32.5178 22.8093 32.5047 22.4043 32.4606 22.0041C32.4277 21.5527 32.3066 21.1137 32.1038 20.7097C31.8794 20.2602 31.4156 19.983 30.9171 20.0009C30.4091 19.9754 29.9322 20.2507 29.6975 20.7059C29.5322 21.0229 29.4252 21.3663 29.3801 21.7212C29.2487 22.5955 29.2327 23.483 29.3332 24.3611C29.3642 24.7642 29.46 25.1607 29.6167 25.5325C29.9191 26.245 30.7387 26.5762 31.4457 26.2715C31.7564 26.1372 32.008 25.894 32.1545 25.5874C32.2409 25.4001 32.3085 25.2052 32.3545 25.0036C32.4803 24.4151 32.5441 23.8152 32.5432 23.2134L32.5441 23.2115Z" fill="white"/>
<path d="M23.546 21.846C23.4906 21.6918 23.4484 21.5679 23.4033 21.4449C23.0972 20.616 22.4813 20.1939 21.6307 20.1022C21.3068 20.052 20.9754 20.07 20.659 20.1552C20.4515 20.2157 20.2647 20.3312 20.1173 20.4911C19.814 20.8289 19.8469 21.2092 20.2318 21.4458C20.4562 21.5792 20.6984 21.6805 20.95 21.7467C21.4796 21.8934 22.0213 21.9993 22.5527 22.1432C23.1705 22.2936 23.7601 22.5415 24.3009 22.8784C24.882 23.2427 25.2548 23.8662 25.3017 24.5541C25.4003 25.2524 25.2059 25.9602 24.7647 26.5081C24.4295 26.9045 23.9939 27.2017 23.5038 27.3672C22.8484 27.5896 22.1546 27.6785 21.4645 27.6284C20.6524 27.5839 19.8572 27.3767 19.1249 27.019C19.093 27.0039 19.0573 26.9944 19.0028 26.9755L18.6911 27.4174H17.5908V24.3507C17.7804 24.3214 17.9738 24.3138 18.1654 24.327C18.3513 24.3223 18.5372 24.3261 18.7465 24.3261C18.785 24.4273 18.8188 24.522 18.8573 24.6147C19.2404 25.5344 19.8835 26.1504 20.8759 26.3425C21.2054 26.4191 21.5481 26.4116 21.8739 26.3207C22.0523 26.2677 22.2185 26.1826 22.3659 26.0681C22.6503 25.8637 22.717 25.4653 22.5151 25.1786C22.4738 25.12 22.4231 25.0689 22.3649 25.0272C22.1255 24.8494 21.8598 24.7093 21.5781 24.6128C21.0327 24.4217 20.4703 24.2816 19.9201 24.1047C19.5361 23.9883 19.1587 23.8511 18.7897 23.694C18.0884 23.3799 17.5748 22.8689 17.419 22.0921C17.1702 20.8516 17.6875 19.7729 18.816 19.173C19.2995 18.9241 19.8319 18.785 20.3736 18.7633C21.4016 18.6866 22.4335 18.8749 23.3695 19.3102C23.4033 19.3263 23.439 19.3376 23.5 19.3613L23.7282 18.9771H24.8867V21.8394C24.6717 21.8413 24.452 21.8451 24.2333 21.846C24.007 21.846 23.7836 21.8451 23.546 21.8451V21.846Z" fill="white"/>
<path d="M16.6059 26.2148V27.3682H11.7116V26.2148C11.8627 26.2148 12.0101 26.2176 12.1557 26.2139C12.258 26.2139 12.3603 26.2053 12.4617 26.1883C12.6166 26.1732 12.7406 26.0502 12.7584 25.894C12.781 25.7739 12.796 25.6527 12.8016 25.5316C12.8044 23.9704 12.8044 22.4082 12.8016 20.8469C12.8007 20.2943 12.6702 20.1685 12.1219 20.159C11.9923 20.1571 11.8618 20.159 11.7116 20.159V19.0112H16.5721C16.6359 19.384 16.6416 19.7654 16.5881 20.1401C16.5205 20.1467 16.4491 20.1552 16.3768 20.1599C16.3045 20.1647 16.2275 20.1599 16.1524 20.1618C15.653 20.1798 15.5347 20.2877 15.5347 20.7844C15.53 22.3836 15.53 23.9827 15.5347 25.5818C15.5365 26.0946 15.6558 26.2053 16.1675 26.2148C16.3064 26.2167 16.4435 26.2148 16.605 26.2148H16.6059Z" fill="white"/>
</g>
<defs>
<clipPath id="clip0_50_73">
<rect width="45.4929" height="46.7224" fill="white" transform="translate(0.507111 0.138672)"/>
</clipPath>
</defs>
</svg>
