<svg width="47" height="47" viewBox="0 0 47 47" fill="none" xmlns="http://www.w3.org/2000/svg">
<g clip-path="url(#clip0_50_20)">
<path d="M37.5873 10.576C39.4335 10.5691 41.0383 10.8586 42.5403 11.6124C44.7564 12.7258 46.1128 14.5262 46.6797 16.9176C47.1079 18.7197 47.1113 20.5355 46.6575 22.3341C45.9741 25.051 44.2735 26.877 41.6292 27.7627C39.0225 28.6363 36.385 28.6243 33.7955 27.6804C31.1427 26.7126 29.4968 24.8129 28.8871 22.0549C28.4144 19.9136 28.4898 17.7809 29.2296 15.7048C30.038 13.4384 31.641 11.9635 33.8966 11.1738C35.1485 10.7353 36.4416 10.5708 37.5856 10.5743L37.5873 10.576ZM40.766 19.7355C40.7112 18.891 40.6941 18.3051 40.6307 17.7227C40.5622 17.0906 40.4286 16.4705 40.1152 15.9052C39.8138 15.3604 39.3736 14.975 38.7434 14.9236C38.1474 14.8757 37.5411 14.8825 36.9451 14.9236C36.1264 14.9801 35.5955 15.4529 35.3489 16.2221C35.2307 16.5921 35.1451 16.9758 35.0971 17.3612C34.9447 18.5929 34.9499 19.8314 35.0492 21.0665C35.104 21.7397 35.2187 22.4044 35.5287 23.0193C35.8028 23.5641 36.2343 23.9444 36.8355 24.0146C37.4452 24.0865 38.0703 24.0934 38.6834 24.0489C39.5209 23.9889 40.0347 23.475 40.3104 22.7024C40.3618 22.5568 40.4269 22.4112 40.4457 22.2605C40.569 21.3354 40.6821 20.4104 40.7677 19.7338L40.766 19.7355Z" fill="white"/>
<path d="M23.9376 11.0936H27.5238V16.9196C27.4502 16.9247 27.3731 16.9367 27.2961 16.9367C26.325 16.9367 25.3556 16.9401 24.3846 16.9333C24.2904 16.9333 24.1602 16.9025 24.1106 16.8374C23.2542 15.7239 22.0965 15.0764 20.7709 14.7115C19.8238 14.4494 18.8545 14.3192 17.8748 14.5368C17.6659 14.583 17.4552 14.679 17.2788 14.8006C16.962 15.0181 16.938 15.3522 17.2514 15.5697C17.5529 15.7787 17.8971 15.9569 18.2482 16.0631C19.9591 16.5855 21.6855 17.0583 23.393 17.5894C24.6757 17.9885 25.8232 18.6326 26.7823 19.6022C28.7912 21.6372 28.6097 25.5686 25.7855 27.2388C24.7357 27.8606 23.5968 28.1844 22.3945 28.3214C20.0636 28.5869 17.9433 27.9737 15.9669 26.7711C15.9327 26.7506 15.8967 26.7352 15.8042 26.6889V27.9651H12.045V21.7537C12.1204 21.7469 12.182 21.7366 12.2454 21.7366C13.2319 21.7366 14.2183 21.7314 15.2048 21.7417C15.3042 21.7417 15.4395 21.812 15.496 21.8925C16.6058 23.4702 18.1694 24.2136 20.0499 24.3866C20.7212 24.4483 21.3875 24.4209 22.0331 24.2273C22.278 24.1536 22.5195 24.0354 22.7302 23.8898C23.011 23.6963 23.0093 23.4856 22.7113 23.3228C22.3363 23.1173 21.9423 22.9254 21.5347 22.7969C19.9386 22.2916 18.3338 21.812 16.7308 21.3272C15.6535 21.0017 14.6551 20.5358 13.7594 19.8386C10.8273 17.5585 11.401 12.5822 15.1586 11.1793C16.515 10.6722 17.9142 10.5592 19.3408 10.6705C20.7212 10.7767 22.0314 11.1364 23.2628 11.7703C23.4769 11.8799 23.6841 12.0049 23.9359 12.1454V11.0936H23.9376Z" fill="white"/>
<path d="M5.43417 10.7972C7.14681 10.7972 8.85945 10.8006 10.5704 10.792C10.7827 10.792 10.853 10.8468 10.8512 11.0644C10.8427 12.2618 10.8427 13.4592 10.8512 14.6583C10.8512 14.8724 10.7879 14.9375 10.5721 14.9324C9.91957 14.9187 9.26705 14.9324 8.61454 14.9238C8.4193 14.9204 8.34223 14.9701 8.34223 15.1791C8.34737 17.9987 8.34737 20.8166 8.34223 23.6362C8.34223 23.8435 8.41416 23.8966 8.61111 23.8932C9.27904 23.8829 9.94869 23.8932 10.6166 23.8863C10.7845 23.8846 10.8478 23.9343 10.8461 24.1073C10.841 25.3372 10.841 26.5672 10.8461 27.7988C10.8461 27.9616 10.7999 28.0267 10.6235 28.0267C7.15879 28.0215 3.69241 28.0215 0.227737 28.0267C0.0598981 28.0267 -0.00175693 27.9787 -0.00175693 27.8074C0.00338099 26.5775 0.00338099 25.3475 -0.00175693 24.1159C-0.00175693 23.9257 0.0718866 23.8863 0.244863 23.888C0.912793 23.8966 1.58244 23.8846 2.25037 23.8949C2.44561 23.8983 2.50212 23.8315 2.50212 23.6448C2.4987 20.8252 2.49699 18.0072 2.50212 15.1876C2.50212 14.9855 2.43876 14.9204 2.23666 14.9238C1.58415 14.9358 0.931632 14.917 0.280829 14.9341C0.0444844 14.9409 -0.00346957 14.8553 -0.00175693 14.6412C0.00680627 13.4592 0.00851891 12.2789 -0.00175693 11.0969C-0.00346957 10.8674 0.0530476 10.7903 0.296243 10.792C2.00888 10.8023 3.72152 10.7972 5.43245 10.7972H5.43417Z" fill="white"/>
<path d="M39.1835 8.86147C39.0208 8.86147 38.8906 8.84948 38.7639 8.8649C38.5961 8.88374 38.5019 8.81008 38.4077 8.67475C37.3613 7.16387 36.1127 5.84142 34.6878 4.68171C34.4789 4.51212 34.347 4.48814 34.1107 4.65088C33.5472 5.03802 32.9546 5.37891 32.3723 5.73864C32.2901 5.79003 32.2045 5.83457 32.1172 5.88596C32.8998 6.86923 33.6705 7.8388 34.484 8.86147C34.2203 8.86147 34.0404 8.88031 33.8675 8.8529C33.7801 8.8392 33.6928 8.75184 33.6311 8.67646C32.9872 7.88848 32.3466 7.09535 31.7061 6.30394C31.6308 6.20972 31.5657 6.14634 31.4218 6.21315C30.4114 6.68937 29.3598 7.05766 28.2825 7.34888C28.2603 7.35573 28.2397 7.36943 28.1935 7.3917C28.3939 7.86621 28.5925 8.34071 28.8118 8.86318C28.6165 8.86318 28.4641 8.87689 28.3168 8.85633C28.2569 8.84777 28.1884 8.77239 28.1592 8.71244C28.0051 8.38011 27.8561 8.04607 27.7191 7.7069C27.6591 7.55787 27.5752 7.51504 27.4211 7.5493C26.0424 7.85936 24.6449 8.01695 23.232 8.03066C23.0504 8.03237 23.0076 8.10603 23.0145 8.26534C23.0213 8.45206 23.0162 8.63878 23.0162 8.84434H22.4801C22.4801 8.64906 22.4733 8.44863 22.4818 8.24821C22.4887 8.09747 22.4424 8.03237 22.2763 8.02894C20.848 7.99297 19.4368 7.8131 18.0461 7.48592C17.88 7.44652 17.8149 7.48934 17.7549 7.63495C17.6248 7.95015 17.4604 8.25335 17.349 8.5754C17.2686 8.80494 17.1538 8.91115 16.9089 8.86661C16.8318 8.8529 16.753 8.85804 16.6315 8.85119C16.8558 8.32358 17.0665 7.8251 17.2874 7.30434C17.0973 7.24781 16.9158 7.20498 16.7428 7.13818C15.8847 6.80928 15.0284 6.47867 14.1772 6.13264C14.0111 6.06412 13.9186 6.07782 13.8073 6.21657C13.1942 6.97715 12.5417 7.71032 11.9679 8.50002C11.7025 8.8649 11.4165 8.90772 10.9763 8.83406C11.8001 7.80283 12.6016 6.80071 13.4151 5.78147C13.3809 5.75577 13.3346 5.71637 13.2832 5.68383C12.7044 5.31895 12.1221 4.96093 11.55 4.58578C11.4079 4.49328 11.324 4.49157 11.1921 4.59777C9.77061 5.72494 8.51867 7.01313 7.48937 8.50688C7.24447 8.86147 6.98072 8.918 6.55598 8.82892C10.0994 3.73613 14.8623 0.698952 21.0347 0.0959709C29.6047 -0.739981 36.1008 3.99822 39.1835 8.86147ZM18.1043 6.89322C18.1677 6.93433 18.1865 6.95317 18.2071 6.95831C19.5515 7.26494 20.9113 7.44994 22.2934 7.47564C22.4784 7.47907 22.4835 7.38314 22.4835 7.24781C22.4818 5.93564 22.4784 4.62518 22.487 3.31301C22.487 3.11773 22.415 3.06463 22.2352 3.0475C21.831 3.0081 21.4251 2.96527 21.0278 2.88647C20.8326 2.84707 20.7315 2.89675 20.627 3.04921C20.0328 3.91599 19.4213 4.76908 18.8373 5.64271C18.5702 6.04013 18.3509 6.46839 18.1043 6.89493V6.89322ZM23.0436 3.1143C23.0367 3.16569 23.0213 3.22051 23.0213 3.27533C23.0213 4.61148 23.0213 5.94592 23.0179 7.28207C23.0179 7.44652 23.0778 7.49448 23.2371 7.48078C24.1602 7.40369 25.0868 7.34716 26.0082 7.25295C26.4552 7.2067 26.897 7.09706 27.356 7.01141C27.332 6.93775 27.3252 6.89835 27.3081 6.86409C26.6007 5.49197 25.705 4.24147 24.7802 3.00981C24.7459 2.96527 24.674 2.91559 24.6243 2.92073C24.1003 2.97898 23.5779 3.0475 23.0419 3.1143H23.0436ZM27.3868 1.08609C24.376 0.363201 21.3943 0.361488 18.3852 1.08781C20.5209 2.99782 25.2255 3.0081 27.3868 1.08609ZM25.3248 2.7854C25.3471 2.8248 25.3591 2.85564 25.3779 2.88133C26.2822 4.11642 27.171 5.36349 27.8578 6.73733C27.9246 6.87095 28.0154 6.85382 28.1198 6.82298C28.4555 6.72705 28.7963 6.64312 29.1252 6.52492C29.8051 6.28167 30.4782 6.02129 31.1838 5.75749C31.1067 5.66156 31.0707 5.60845 31.0262 5.56392C29.7708 4.27744 28.3014 3.26848 26.8063 2.29034C26.76 2.25951 26.6778 2.24067 26.6281 2.25951C26.1966 2.42738 25.7701 2.60383 25.3231 2.7854H25.3248ZM20.1886 2.71175C19.7724 2.52674 19.3888 2.34859 19 2.18928C18.9332 2.16187 18.8202 2.17557 18.7586 2.21668C17.3953 3.09375 16.0663 4.01706 14.8691 5.11682C14.703 5.26928 14.5249 5.40803 14.3399 5.56392C14.4307 5.63586 14.4478 5.65642 14.4684 5.66327C15.4497 6.02814 16.4311 6.3913 17.4107 6.7596C17.558 6.81442 17.5888 6.71164 17.6453 6.62256C18.3321 5.53822 19.0189 4.45388 19.7125 3.37297C19.8564 3.14856 20.0242 2.94129 20.1903 2.71346L20.1886 2.71175ZM27.2841 1.9032C27.2978 1.92376 27.3081 1.94945 27.3252 1.96316C27.4245 2.03339 27.5256 2.10191 27.6266 2.17043C29.0344 3.11602 30.4114 4.10271 31.576 5.34979C31.6753 5.456 31.7541 5.45771 31.8688 5.38748C32.4939 5.00547 33.1208 4.62861 33.7442 4.24661C33.7973 4.21406 33.8418 4.16781 33.8983 4.12156C33.8658 4.0873 33.8486 4.05989 33.8229 4.04105C32.1 2.80939 30.2178 1.90149 28.1866 1.30193C28.1267 1.2848 28.0359 1.30193 27.9863 1.33791C27.7465 1.51949 27.517 1.71134 27.2807 1.9032H27.2841ZM11.8429 4.10271C11.9234 4.16781 11.9696 4.21235 12.0227 4.24661C12.4971 4.54638 12.9681 4.85301 13.4494 5.13909C13.8364 5.37035 13.8416 5.35835 14.1601 5.03973C15.3196 3.88345 16.6469 2.94472 18.0033 2.04196C18.1146 1.9683 18.2208 1.8895 18.3441 1.80213C18.1848 1.67194 18.0375 1.57773 17.9245 1.45439C17.7686 1.28652 17.6128 1.28138 17.4056 1.34647C15.782 1.8501 14.2457 2.54558 12.8106 3.45862C12.4903 3.66247 12.1803 3.87831 11.8429 4.10271Z" fill="white"/>
<path d="M17.296 31.4115C17.1864 31.1631 17.087 30.9404 16.9911 30.716C16.8952 30.4933 16.8044 30.2706 16.6948 30.0068C16.8661 30.0068 17.0048 29.9897 17.135 30.0137C17.212 30.0274 17.3097 30.0908 17.3422 30.1576C17.4929 30.4642 17.6299 30.7777 17.7635 31.0912C17.8183 31.2197 17.8714 31.2762 18.0341 31.2385C19.4316 30.9079 20.8514 30.7263 22.2883 30.692C22.4373 30.6886 22.4921 30.6338 22.4853 30.4882C22.4784 30.3357 22.4853 30.1833 22.4853 30.0188H23.0213C23.0213 30.1679 23.0265 30.3186 23.0213 30.4676C23.0145 30.615 23.059 30.6886 23.2268 30.6903C24.6483 30.7023 26.0527 30.8616 27.4399 31.1734C27.5821 31.206 27.6643 31.1666 27.7208 31.0244C27.8219 30.7674 27.9589 30.5242 28.0496 30.2621C28.1199 30.0599 28.2226 29.9674 28.4384 30.0034C28.5258 30.0171 28.6165 30.0051 28.7552 30.0051C28.5617 30.4608 28.3819 30.889 28.1952 31.3327C28.5634 31.4458 28.9162 31.5349 29.257 31.6599C29.9592 31.9186 30.658 32.1858 31.3499 32.4684C31.5212 32.5387 31.6188 32.5404 31.7387 32.3896C32.2987 31.6907 32.8827 31.009 33.4273 30.2981C33.602 30.0702 33.7733 29.9589 34.0524 30.0017C34.1295 30.0137 34.21 30.0034 34.3573 30.0034C33.9634 30.5122 33.6106 30.9764 33.2475 31.4304C32.881 31.8877 32.5042 32.3365 32.1137 32.8128C32.184 32.8556 32.2473 32.895 32.3124 32.9361C32.9872 33.3609 33.6671 33.7789 34.335 34.214C34.4703 34.3014 34.5474 34.2997 34.669 34.202C36.0305 33.1074 37.2243 31.8552 38.2433 30.4368C38.5721 29.9794 38.5687 29.9777 39.2006 30.0171C37.512 32.5815 35.3729 34.6354 32.7508 36.184C30.1271 37.7343 27.2909 38.6233 24.251 38.8272C15.6621 39.4027 9.3476 34.471 6.60909 30.0051C6.79063 30.0051 6.9636 29.9811 7.12459 30.0137C7.21707 30.0325 7.31127 30.1285 7.3695 30.2124C8.29946 31.5417 9.38014 32.734 10.6132 33.7875C10.817 33.9622 11.0208 34.2431 11.2435 34.2603C11.4541 34.2774 11.6888 34.0153 11.9131 33.8765C12.4166 33.5631 12.9185 33.2496 13.4237 32.9344C12.6547 31.9768 11.8892 31.0227 11.1236 30.0668C11.1356 30.0462 11.1476 30.024 11.1596 30.0034C11.3428 30.0034 11.5278 29.9897 11.7076 30.0103C11.7795 30.0188 11.8532 30.0959 11.9063 30.1593C12.5417 30.9336 13.1771 31.7079 13.8056 32.489C13.9221 32.6346 14.0163 32.6466 14.1944 32.5764C15.1312 32.2064 16.0766 31.8569 17.0185 31.5006C17.1007 31.4698 17.1864 31.4441 17.2994 31.4047L17.296 31.4115ZM18.1283 31.7798C18.142 31.8381 18.142 31.8552 18.1506 31.8689C18.8647 33.265 19.781 34.5292 20.723 35.7763C20.7606 35.826 20.8754 35.8431 20.9507 35.8345C21.3703 35.7866 21.7865 35.7129 22.2061 35.6769C22.4202 35.6581 22.4921 35.5878 22.4904 35.3669C22.4801 34.0821 22.4853 32.7956 22.4853 31.5092C22.4853 31.4304 22.4767 31.3516 22.4699 31.2471C20.9953 31.2522 19.5635 31.4458 18.1283 31.7798ZM27.368 31.7593C27.3218 31.7199 27.3149 31.7113 27.3081 31.7096C25.9551 31.3978 24.5815 31.2625 23.1943 31.2334C23.0436 31.2299 23.0196 31.3087 23.0196 31.4304C23.0196 32.7665 23.0213 34.1009 23.0196 35.4371C23.0196 35.5776 23.0624 35.6324 23.2131 35.6444C23.643 35.6786 24.0712 35.7215 24.4976 35.7831C24.6569 35.8054 24.7528 35.7711 24.8419 35.6392C25.4875 34.6902 26.1452 33.7515 26.7823 32.7973C27.0015 32.4684 27.1728 32.107 27.3663 31.7593H27.368ZM27.4947 37.7223C25.8318 36.3793 23.905 36.0281 21.8413 36.2542C20.5192 36.3998 19.2929 36.8246 18.2105 37.7462C21.3549 38.5205 24.4188 38.5188 27.4947 37.724V37.7223ZM25.3077 35.9424C25.6057 36.0486 25.89 36.1 26.1178 36.2439C26.5596 36.5197 26.8936 36.4101 27.2944 36.1274C28.5463 35.2435 29.8068 34.3767 30.896 33.289C30.9851 33.1999 31.069 33.1057 31.1598 33.0098C31.1136 32.9755 31.0964 32.9567 31.0742 32.9481C30.0808 32.5952 29.0858 32.244 28.0925 31.8877C27.94 31.8329 27.8938 31.9203 27.839 32.0299C27.195 33.2975 26.3832 34.4555 25.5526 35.6033C25.4772 35.7078 25.4019 35.8123 25.3094 35.9424H25.3077ZM20.1783 36.011C20.1424 35.9544 20.1133 35.8979 20.0756 35.8465C19.1884 34.6388 18.3167 33.4175 17.6351 32.0762C17.5683 31.946 17.4929 31.9288 17.361 31.9751C16.664 32.2201 15.9601 32.4513 15.2648 32.7031C14.9702 32.8093 14.6876 32.9532 14.3708 33.092C14.4581 33.1862 14.5146 33.253 14.578 33.3147C15.8368 34.5617 17.2908 35.5519 18.7688 36.5112C18.8254 36.5471 18.9298 36.5608 18.9898 36.5351C19.3785 36.3724 19.7622 36.196 20.1783 36.011ZM34.0131 34.7279C34.0148 34.6937 34.0182 34.6594 34.0199 34.6251C33.4256 34.2585 32.8382 33.8817 32.2336 33.5305C31.7215 33.2324 31.7147 33.2462 31.29 33.671C30.1493 34.8136 28.8392 35.7386 27.505 36.6345C27.4279 36.6859 27.3543 36.7441 27.2789 36.8007C27.5461 37.0234 27.7979 37.2152 28.0291 37.431C28.1473 37.5424 28.2483 37.5578 28.3973 37.5116C29.8119 37.0765 31.1598 36.4923 32.4306 35.7335C32.9666 35.4131 33.4856 35.0637 34.0131 34.7279ZM11.6905 34.6662C11.7915 34.7313 11.8412 34.7587 11.8857 34.793C13.5812 36.0058 15.4258 36.9154 17.421 37.5218C17.4895 37.5424 17.5957 37.5441 17.6453 37.5064C17.88 37.3197 18.1009 37.1176 18.3441 36.9034C16.7445 35.8414 15.1774 34.7587 13.8262 33.3387C13.1291 33.772 12.4406 34.2003 11.6888 34.6662H11.6905Z" fill="white"/>
<path d="M0.241484 45.1502C0.49153 45.1502 0.727874 45.1433 0.960793 45.157C1.00703 45.1604 1.08068 45.2358 1.09095 45.2872C1.19542 45.8611 1.52596 46.2088 2.10655 46.2842C2.6957 46.3595 3.24717 46.0529 3.53147 45.4962C3.82262 44.9309 3.90311 44.3091 3.99388 43.6444C3.92537 43.7009 3.8877 43.7249 3.86029 43.7575C3.27457 44.4735 2.49532 44.5335 1.6801 44.3553C0.899138 44.184 0.421311 43.6478 0.236346 42.8873C0.0496682 42.1233 0.145576 41.3832 0.602851 40.7152C1.14576 39.922 1.94214 39.7524 2.82243 39.8604C3.90311 39.9923 4.45458 40.7152 4.68579 41.7019C4.98379 42.9781 4.89815 44.2423 4.40834 45.4636C4.12062 46.1831 3.65649 46.7381 2.85669 46.9266C2.35146 47.0447 1.85137 47.0105 1.36498 46.8392C0.683345 46.5994 0.243197 45.945 0.239771 45.1519L0.241484 45.1502ZM1.01731 42.1883C1.01731 42.1883 1.02759 42.1883 1.03272 42.1901C1.03272 42.2312 1.03272 42.2723 1.03272 42.3117C1.04471 43.1134 1.49685 43.641 2.21958 43.6958C3.08789 43.7626 3.67019 43.3463 3.81063 42.5412C3.84659 42.3357 3.85173 42.1181 3.83632 41.9091C3.78151 41.1554 3.29512 40.6449 2.60322 40.5987C1.80341 40.5439 1.24509 40.955 1.07897 41.7293C1.04643 41.88 1.03786 42.0342 1.01731 42.1866V42.1883Z" fill="white"/>
<path d="M30.747 43.4917C30.7351 42.7122 30.8173 41.9791 31.0981 41.2819C31.5742 40.0948 32.5864 39.5928 33.8195 39.932C34.5029 40.1205 34.9584 40.5761 35.1828 41.2236C35.6966 42.7071 35.6914 44.2026 35.0954 45.6586C34.645 46.7584 33.6089 47.2209 32.47 46.9057C31.6753 46.6864 31.2625 46.0903 31.0074 45.3589C30.795 44.7456 30.7333 44.1066 30.747 43.4934V43.4917ZM31.6684 43.454C31.6684 43.6818 31.653 43.9114 31.6719 44.1375C31.713 44.6497 31.7969 45.155 32.0606 45.609C32.3398 46.0886 32.7936 46.2993 33.34 46.1982C33.9428 46.0869 34.2631 45.6775 34.4189 45.1276C34.6416 44.3447 34.6724 43.5362 34.5885 42.7328C34.5405 42.2754 34.4412 41.8198 34.3145 41.3778C34.2066 41.0009 33.9394 40.7406 33.5386 40.6395C32.7988 40.4511 32.1994 40.7834 31.9151 41.556C31.6907 42.1692 31.6496 42.8082 31.6684 43.454Z" fill="white"/>
<path d="M10.4762 43.3084C10.4505 44.0844 10.3837 44.8433 10.0875 45.5644C9.57538 46.8098 8.5084 47.1918 7.39518 46.8989C6.71869 46.7224 6.31451 46.2342 6.04734 45.6158C5.76475 44.9615 5.68939 44.2677 5.68254 43.5636C5.67398 42.7791 5.74249 42.0031 6.04562 41.2665C6.52859 40.0914 7.52534 39.5997 8.75331 39.9286C9.44864 40.1153 9.87337 40.5916 10.1371 41.2339C10.4111 41.902 10.454 42.6078 10.4796 43.3084H10.4762ZM6.5851 43.6836C6.59538 43.8703 6.59709 44.0587 6.61593 44.2437C6.66731 44.7302 6.75637 45.2098 7.01498 45.6381C7.289 46.0921 7.74114 46.2959 8.26178 46.2017C8.88689 46.0903 9.21058 45.6655 9.36643 45.0968C9.56681 44.3688 9.60963 43.6185 9.53598 42.8716C9.48803 42.3817 9.39041 41.8935 9.26539 41.4155C9.16434 41.0284 8.89888 40.7526 8.48956 40.6429C7.74799 40.4477 7.14343 40.7783 6.85741 41.5423C6.59881 42.2343 6.59195 42.9589 6.58339 43.6818L6.5851 43.6836Z" fill="white"/>
<path d="M16.08 43.3083C16.0286 44.1168 15.9481 44.9065 15.6176 45.6517C15.138 46.7343 14.107 47.2242 12.9647 46.9022C12.3002 46.7154 11.8892 46.2512 11.6271 45.6414C11.2743 44.8226 11.2127 43.9575 11.2538 43.0804C11.2829 42.4449 11.3805 41.8196 11.6271 41.2252C12.1957 39.8548 13.4237 39.615 14.5009 39.9919C15.2956 40.2711 15.6724 40.9289 15.8488 41.6963C15.9704 42.2239 16.0063 42.7704 16.0817 43.31L16.08 43.3083ZM15.1603 43.5121C15.1141 42.9948 15.0918 42.5802 15.037 42.1691C15.0027 41.9224 14.9325 41.6758 14.8503 41.4394C14.614 40.7559 14.0197 40.4509 13.3158 40.6411C12.7369 40.797 12.4937 41.2544 12.3533 41.7717C12.1135 42.6624 12.0793 43.5738 12.2248 44.4817C12.2882 44.8757 12.4184 45.2731 12.5948 45.6294C12.8294 46.1056 13.3072 46.294 13.8296 46.2015C14.4667 46.0885 14.8058 45.6551 14.9377 45.0744C15.0592 44.5313 15.0986 43.9678 15.162 43.5104L15.1603 43.5121Z" fill="white"/>
<path d="M25.1707 46.7893C25.2375 45.9277 25.4019 45.1157 26.1024 44.5521C26.5254 44.2129 27.0118 43.9543 27.4673 43.6562C27.8287 43.4215 28.2089 43.2091 28.5412 42.9384C29.0276 42.5427 29.1783 41.9603 28.9334 41.3984C28.8289 41.1586 28.6388 40.9137 28.4213 40.7766C27.517 40.2062 26.3832 40.7561 26.2377 41.8096C26.1943 42.1213 26.0179 42.2772 25.7085 42.2772C25.5954 42.2772 25.4841 42.2772 25.3779 42.2772C25.1775 41.3299 25.8609 40.2062 26.7891 39.9355C27.3475 39.7728 27.9195 39.7728 28.4795 39.9098C29.3067 40.112 29.764 40.6927 29.9233 41.4927C30.0808 42.2806 29.8513 42.9778 29.1988 43.4678C28.7313 43.8172 28.2089 44.093 27.714 44.4048C27.3903 44.6086 27.0563 44.7971 26.7515 45.0266C26.4432 45.2596 26.2222 45.5696 26.1178 45.9893H29.9198V46.791H25.1707V46.7893Z" fill="white"/>
<path d="M42.1498 43.6718C42.2234 43.1288 42.2902 42.6132 42.3639 42.0993C42.4546 41.4552 42.5574 40.8128 42.6396 40.167C42.6602 40.0077 42.7167 39.9614 42.8674 39.9614C43.9275 39.9649 44.9876 39.9666 46.0478 39.9614C46.2225 39.9614 46.2738 40.0299 46.2704 40.1927C46.2584 40.8779 46.3458 40.7528 45.7275 40.7597C45.0013 40.7683 44.2752 40.7665 43.5507 40.7597C43.3623 40.758 43.2801 40.8094 43.2562 41.0132C43.1996 41.498 43.1106 41.9776 43.0369 42.459C43.025 42.5361 43.025 42.6149 43.0164 42.7245C43.0917 42.6868 43.1346 42.668 43.174 42.644C44.1159 42.0804 45.3353 42.2346 46.094 43.0157C46.7191 43.6598 46.8459 44.739 46.4143 45.6623C46.0221 46.5017 45.3524 46.9009 44.4447 46.9574C43.8008 46.9985 43.1945 46.9094 42.655 46.524C42.1635 46.1711 41.946 45.6829 41.8997 45.0748H42.7321C42.7424 45.0868 42.7612 45.097 42.7629 45.109C42.9342 46.0101 43.6347 46.2807 44.366 46.2362C45.1092 46.19 45.6384 45.6538 45.7361 44.8555C45.8285 44.0949 45.5477 43.5245 44.9363 43.2247C44.2992 42.913 43.5148 43.0449 43.025 43.5622C42.9068 43.6872 42.7903 43.7472 42.6225 43.7215C42.4786 43.6992 42.333 43.6889 42.1498 43.6701V43.6718Z" fill="white"/>
<path d="M20.0019 39.8773V46.7841H19.1114V41.8369C18.8185 41.8369 18.553 41.8369 18.2859 41.8369H17.9673C17.5837 41.8369 17.4198 41.6308 17.4758 41.2185C17.7344 41.1723 17.9964 41.1243 18.2585 41.0798C18.7997 40.989 19.1405 40.6755 19.2604 40.1462C19.3134 39.9132 19.4333 39.8464 19.6526 39.8755C19.7622 39.8892 19.8752 39.8773 20.0002 39.8773H20.0019Z" fill="white"/>
<path d="M39.4832 46.791H38.5961V41.8369C38.2073 41.8369 37.8442 41.8369 37.4811 41.8369C37.0918 41.8369 36.9228 41.6428 36.9742 41.2545C36.9742 41.2545 36.9828 41.2408 36.9982 41.2151C37.2448 41.1689 37.5051 41.1175 37.7689 41.0729C38.2912 40.9856 38.6269 40.6824 38.7451 40.1753C38.8067 39.9081 38.9454 39.8413 39.1869 39.8738C39.2811 39.8858 39.377 39.8755 39.4849 39.8755V46.7893L39.4832 46.791Z" fill="white"/>
<path d="M24.1705 46.7944H23.1909V45.7683C23.4786 45.7683 23.7612 45.7615 24.0421 45.7752C24.0866 45.7769 24.1637 45.8608 24.1654 45.9088C24.1774 46.1983 24.1705 46.4878 24.1705 46.7944Z" fill="white"/>
<path d="M24.1705 42.6847H23.1891V41.6843C23.482 41.6843 23.7783 41.6808 24.0746 41.6894C24.1071 41.6894 24.1654 41.7614 24.1671 41.8025C24.1756 42.092 24.1705 42.3832 24.1705 42.6864V42.6847Z" fill="white"/>
</g>
<defs>
<clipPath id="clip0_50_20">
<rect width="47" height="47" fill="white"/>
</clipPath>
</defs>
</svg>
